AmstelvarAlpha-XOPQ-min.ufo
<glyph name="exclam" format="1">
  <advance width="604"/>
  <unicode hex="0021"/>
  <outline>
    <contour>
      <point x="172" y="107" type="qcurve" smooth="yes"/>
      <point x="172" y="159"/>
      <point x="245" y="236"/>
      <point x="302" y="236" type="qcurve" smooth="yes"/>
      <point x="359" y="236"/>
      <point x="432" y="159"/>
      <point x="432" y="107" type="qcurve" smooth="yes"/>
      <point x="432" y="55"/>
      <point x="359" y="-22"/>
      <point x="302" y="-22" type="qcurve" smooth="yes"/>
      <point x="245" y="-22"/>
      <point x="172" y="55"/>
    </contour>
    <contour>
      <point x="287" y="1520" type="line"/>
      <point x="317" y="1520" type="line"/>
      <point x="313" y="1108" type="line"/>
      <point x="311" y="838" type="line"/>
      <point x="309" y="397" type="line"/>
      <point x="293" y="397" type="line"/>
      <point x="291" y="838" type="line"/>
      <point x="291" y="1108" type="line"/>
    </contour>
  </outline>
</glyph>
<glyph name="five" format="1">
  <advance width="974"/>
  <unicode hex="0035"/>
  <outline>
    <contour>
      <point x="2" y="139" type="qcurve"/>
      <point x="2" y="270" type="line"/>
      <point x="95" y="182"/>
      <point x="319" y="107"/>
      <point x="458" y="107" type="qcurve" smooth="yes"/>
      <point x="620" y="107"/>
      <point x="928" y="260"/>
      <point x="928" y="460" type="qcurve" smooth="yes"/>
      <point x="928" y="660"/>
      <point x="560" y="790"/>
      <point x="340" y="790" type="qcurve" smooth="yes"/>
      <point x="139" y="790" type="line"/>
      <point x="199" y="898" type="line"/>
      <point x="374" y="938" type="line"/>
      <point x="640" y="938"/>
      <point x="938" y="680"/>
      <point x="938" y="460" type="qcurve" smooth="yes"/>
      <point x="938" y="240"/>
      <point x="669" y="-26"/>
      <point x="474" y="-26" type="qcurve" smooth="yes"/>
      <point x="312" y="-26"/>
      <point x="77" y="63"/>
    </contour>
    <contour>
      <point x="139" y="790" type="qcurve"/>
      <point x="212" y="1467" type="line"/>
      <point x="239" y="1500" type="line"/>
      <point x="858" y="1500" type="line"/>
      <point x="858" y="1490" type="line"/>
      <point x="342" y="1490" type="line"/>
      <point x="332" y="1479" type="line"/>
      <point x="260" y="860"/>
      <point x="217" y="790"/>
    </contour>
  </outline>
</glyph>
<glyph name="D" format="1">
  <advance width="1241"/>
  <unicode hex="0044"/>
  <outline>
    <contour>
      <point x="82" y="0" type="line"/>
      <point x="82" y="100" type="line"/>
      <point x="290" y="135" type="line"/>
      <point x="292" y="754" type="line"/>
      <point x="290" y="1352" type="line"/>
      <point x="82" y="1386" type="line"/>
      <point x="82" y="1500" type="line"/>
      <point x="543" y="1500" type="line" smooth="yes"/>
      <point x="821" y="1500"/>
      <point x="1161" y="1119"/>
      <point x="1161" y="777" type="qcurve" smooth="yes"/>
      <point x="1161" y="410"/>
      <point x="822" y="0"/>
      <point x="512" y="0" type="qcurve" smooth="yes"/>
    </contour>
    <contour>
      <point x="302" y="130" type="line"/>
      <point x="336" y="124"/>
      <point x="486" y="112"/>
      <point x="561" y="112" type="qcurve" smooth="yes"/>
      <point x="848" y="112"/>
      <point x="1149" y="439"/>
      <point x="1151" y="761" type="qcurve" smooth="yes"/>
      <point x="1153" y="1058"/>
      <point x="809" y="1375"/>
      <point x="524" y="1375" type="qcurve" smooth="yes"/>
      <point x="474" y="1375"/>
      <point x="338" y="1363"/>
      <point x="302" y="1358" type="qcurve"/>
      <point x="302" y="754" type="line"/>
    </contour>
  </outline>
</glyph>
<glyph name="F" format="1">
  <advance width="963"/>
  <unicode hex="0046"/>
  <outline>
    <contour>
      <point x="82" y="0" type="line"/>
      <point x="82" y="100" type="line"/>
      <point x="295" y="145" type="line"/>
      <point x="295" y="760" type="line"/>
      <point x="295" y="1342" type="line"/>
      <point x="82" y="1386" type="line"/>
      <point x="82" y="1500" type="line"/>
      <point x="943" y="1500" type="line"/>
      <point x="943" y="1142" type="line"/>
      <point x="833" y="1142" type="line"/>
      <point x="798" y="1382" type="line"/>
      <point x="378" y="1382" type="line"/>
      <point x="305" y="1342" type="line"/>
      <point x="305" y="760" type="line"/>
      <point x="305" y="145" type="line"/>
      <point x="538" y="100" type="line"/>
      <point x="538" y="0" type="line"/>
    </contour>
    <contour>
      <point x="300" y="709" type="line"/>
      <point x="300" y="811" type="line"/>
      <point x="652" y="818" type="line"/>
      <point x="687" y="988" type="line"/>
      <point x="797" y="988" type="line"/>
      <point x="797" y="522" type="line"/>
      <point x="687" y="522" type="line"/>
      <point x="652" y="702" type="line"/>
    </contour>
  </outline>
</glyph>
<glyph name="G" format="1">
  <advance width="1240"/>
  <unicode hex="0047"/>
  <outline>
    <contour>
      <point x="80" y="755" type="qcurve" smooth="yes"/>
      <point x="80" y="1068"/>
      <point x="457" y="1520"/>
      <point x="735" y="1520" type="qcurve" smooth="yes"/>
      <point x="848" y="1520"/>
      <point x="1057" y="1454"/>
      <point x="1134" y="1392" type="qcurve"/>
      <point x="1018" y="1275" type="line"/>
      <point x="953" y="1328"/>
      <point x="757" y="1384"/>
      <point x="659" y="1384" type="qcurve" smooth="yes"/>
      <point x="400" y="1384"/>
      <point x="88" y="1057"/>
      <point x="90" y="759" type="qcurve" smooth="yes"/>
      <point x="92" y="475"/>
      <point x="419" y="95"/>
      <point x="681" y="95" type="qcurve" smooth="yes"/>
      <point x="815" y="95"/>
      <point x="1028" y="176"/>
      <point x="1092" y="247" type="qcurve"/>
      <point x="1092" y="175" type="line"/>
      <point x="1040" y="96"/>
      <point x="837" y="-30"/>
      <point x="703" y="-30" type="qcurve" smooth="yes"/>
      <point x="463" y="-30"/>
      <point x="80" y="394"/>
    </contour>
    <contour>
      <point x="888" y="558" type="line"/>
      <point x="888" y="658" type="line"/>
      <point x="1228" y="658" type="line"/>
      <point x="1228" y="558" type="line"/>
      <point x="1097" y="523" type="line"/>
      <point x="1097" y="176" type="line"/>
      <point x="1087" y="174" type="line"/>
      <point x="1087" y="523" type="line"/>
    </contour>
    <contour>
      <point x="966" y="1325" type="line"/>
      <point x="1036" y="1487" type="line"/>
      <point x="1140" y="1487" type="line"/>
      <point x="1140" y="1041" type="line"/>
      <point x="1026" y="1041" type="line"/>
    </contour>
  </outline>
</glyph>
<glyph name="H" format="1">
  <advance width="1414"/>
  <unicode hex="0048"/>
  <outline>
    <contour>
      <point x="82" y="0" type="line"/>
      <point x="82" y="100" type="line"/>
      <point x="295" y="145" type="line"/>
      <point x="295" y="774" type="line"/>
      <point x="295" y="1342" type="line"/>
      <point x="82" y="1386" type="line"/>
      <point x="82" y="1500" type="line"/>
      <point x="518" y="1500" type="line"/>
      <point x="518" y="1386" type="line"/>
      <point x="305" y="1342" type="line"/>
      <point x="305" y="774" type="line"/>
      <point x="305" y="145" type="line"/>
      <point x="518" y="100" type="line"/>
      <point x="518" y="0" type="line"/>
    </contour>
    <contour>
      <point x="300" y="716" type="line"/>
      <point x="300" y="846" type="line"/>
      <point x="787" y="840" type="line"/>
      <point x="1114" y="848" type="line"/>
      <point x="1114" y="716" type="line"/>
      <point x="787" y="716" type="line"/>
    </contour>
    <contour>
      <point x="896" y="0" type="line"/>
      <point x="896" y="100" type="line"/>
      <point x="1109" y="145" type="line"/>
      <point x="1109" y="774" type="line"/>
      <point x="1109" y="1342" type="line"/>
      <point x="896" y="1386" type="line"/>
      <point x="896" y="1500" type="line"/>
      <point x="1332" y="1500" type="line"/>
      <point x="1332" y="1386" type="line"/>
      <point x="1119" y="1342" type="line"/>
      <point x="1119" y="774" type="line"/>
      <point x="1119" y="145" type="line"/>
      <point x="1332" y="100" type="line"/>
      <point x="1332" y="0" type="line"/>
    </contour>
  </outline>
</glyph>
<glyph name="K" format="1">
  <advance width="1086"/>
  <unicode hex="004B"/>
  <outline>
    <contour>
      <point x="82" y="0" type="line"/>
      <point x="82" y="100" type="line"/>
      <point x="295" y="146" type="line"/>
      <point x="295" y="759" type="line"/>
      <point x="295" y="1342" type="line"/>
      <point x="82" y="1386" type="line"/>
      <point x="82" y="1500" type="line"/>
      <point x="495" y="1500" type="line"/>
      <point x="495" y="1386" type="line"/>
      <point x="305" y="1342" type="line"/>
      <point x="305" y="759" type="line"/>
      <point x="305" y="146" type="line"/>
      <point x="515" y="100" type="line"/>
      <point x="515" y="0" type="line"/>
    </contour>
    <contour>
      <point x="300" y="679" type="line"/>
      <point x="300" y="832" type="line"/>
      <point x="761" y="1338" type="line"/>
      <point x="614" y="1386" type="line"/>
      <point x="614" y="1500" type="line"/>
      <point x="1110" y="1500" type="line"/>
      <point x="1110" y="1386" type="line"/>
      <point x="932" y="1338" type="line"/>
    </contour>
    <contour>
      <point x="427" y="870" type="line"/>
      <point x="435" y="878" type="line"/>
      <point x="965" y="135" type="line"/>
      <point x="1122" y="100" type="line"/>
      <point x="1122" y="0" type="line"/>
      <point x="773" y="0" type="line"/>
      <point x="773" y="100" type="line"/>
      <point x="951" y="135" type="line"/>
    </contour>
  </outline>
</glyph>
<glyph name="O" format="1">
  <advance width="1305"/>
  <unicode hex="004F"/>
  <outline>
    <contour>
      <point x="80" y="752" type="qcurve"/>
      <point x="80" y="1078"/>
      <point x="394" y="1520"/>
      <point x="651" y="1520" type="qcurve" smooth="yes"/>
      <point x="909" y="1520"/>
      <point x="1225" y="1097"/>
      <point x="1225" y="752" type="qcurve" smooth="yes"/>
      <point x="1225" y="423"/>
      <point x="911" y="-31"/>
      <point x="654" y="-31" type="qcurve" smooth="yes"/>
      <point x="403" y="-31"/>
      <point x="80" y="406"/>
    </contour>
    <contour>
      <point x="90" y="755" type="qcurve"/>
      <point x="90" y="468"/>
      <point x="404" y="101"/>
      <point x="654" y="101" type="qcurve" smooth="yes"/>
      <point x="927" y="101"/>
      <point x="1213" y="436"/>
      <point x="1213" y="745" type="qcurve" smooth="yes"/>
      <point x="1213" y="1020"/>
      <point x="906" y="1380"/>
      <point x="654" y="1380" type="qcurve" smooth="yes"/>
      <point x="380" y="1380"/>
      <point x="90" y="1043"/>
    </contour>
  </outline>
</glyph>
<glyph name="Q" format="1">
  <advance width="1305"/>
  <unicode hex="0051"/>
  <outline>
    <contour>
      <point x="80" y="757" type="qcurve"/>
      <point x="80" y="1081"/>
      <point x="394" y="1520"/>
      <point x="651" y="1520" type="qcurve" smooth="yes"/>
      <point x="909" y="1520"/>
      <point x="1225" y="1100"/>
      <point x="1225" y="757" type="qcurve" smooth="yes"/>
      <point x="1225" y="431"/>
      <point x="911" y="-20"/>
      <point x="654" y="-20" type="qcurve" smooth="yes"/>
      <point x="403" y="-20"/>
      <point x="80" y="414"/>
    </contour>
    <contour>
      <point x="90" y="753" type="qcurve"/>
      <point x="90" y="465"/>
      <point x="404" y="97"/>
      <point x="654" y="97" type="qcurve" smooth="yes"/>
      <point x="927" y="97"/>
      <point x="1213" y="433"/>
      <point x="1213" y="743" type="qcurve" smooth="yes"/>
      <point x="1213" y="1019"/>
      <point x="906" y="1380"/>
      <point x="654" y="1380" type="qcurve" smooth="yes"/>
      <point x="380" y="1380"/>
      <point x="90" y="1042"/>
    </contour>
    <contour>
      <point x="238" y="-224" type="line"/>
      <point x="300" y="-131"/>
      <point x="480" y="-39"/>
      <point x="568" y="-39" type="qcurve"/>
      <point x="809" y="-174" type="line"/>
      <point x="915" y="-174"/>
      <point x="1107" y="-43"/>
      <point x="1148" y="54" type="qcurve"/>
      <point x="1238" y="2" type="line"/>
      <point x="1200" y="-104"/>
      <point x="1044" y="-243"/>
      <point x="912" y="-243" type="qcurve"/>
      <point x="643" y="-95" type="line"/>
      <point x="543" y="-95"/>
      <point x="351" y="-233"/>
      <point x="306" y="-288" type="qcurve"/>
    </contour>
    <contour>
      <point x="559" y="-41" type="line"/>
      <point x="608" y="37" type="line"/>
      <point x="614" y="53"/>
      <point x="624" y="67"/>
      <point x="638" y="79" type="qcurve"/>
      <point x="675" y="70"/>
      <point x="704" y="57"/>
      <point x="735" y="38" type="qcurve"/>
      <point x="727" y="24"/>
      <point x="717" y="9"/>
      <point x="705" y="-5" type="qcurve"/>
      <point x="646" y="-90" type="line"/>
    </contour>
  </outline>
</glyph>
<glyph name="S" format="1">
  <advance width="808"/>
  <unicode hex="0053"/>
  <outline>
    <contour>
      <point x="52" y="0" type="line"/>
      <point x="52" y="484" type="line"/>
      <point x="168" y="484" type="line"/>
      <point x="228" y="172" type="line"/>
      <point x="156" y="0" type="line"/>
    </contour>
    <contour>
      <point x="87" y="1160" type="qcurve" smooth="yes"/>
      <point x="87" y="1297"/>
      <point x="201" y="1520"/>
      <point x="359" y="1520" type="qcurve" smooth="yes"/>
      <point x="444" y="1520"/>
      <point x="608" y="1435"/>
      <point x="651" y="1388" type="qcurve"/>
      <point x="592" y="1279" type="line"/>
      <point x="546" y="1322"/>
      <point x="432" y="1386"/>
      <point x="337" y="1386" type="qcurve" smooth="yes"/>
      <point x="225" y="1386"/>
      <point x="97" y="1270"/>
      <point x="97" y="1172" type="qcurve" smooth="yes"/>
      <point x="97" y="1082"/>
      <point x="237" y="868"/>
      <point x="424" y="800" type="qcurve" smooth="yes"/>
      <point x="594" y="738"/>
      <point x="756" y="550"/>
      <point x="756" y="370" type="qcurve"/>
      <point x="756" y="162"/>
      <point x="581" y="-23"/>
      <point x="462" y="-23" type="qcurve" smooth="yes"/>
      <point x="357" y="-23"/>
      <point x="183" y="120"/>
      <point x="118" y="255" type="qcurve"/>
      <point x="199" y="326" type="line"/>
      <point x="220" y="229"/>
      <point x="376" y="102"/>
      <point x="488" y="102" type="qcurve" smooth="yes"/>
      <point x="595" y="102"/>
      <point x="747" y="241"/>
      <point x="747" y="370" type="qcurve" smooth="yes"/>
      <point x="747" y="551"/>
      <point x="577" y="733"/>
      <point x="421" y="790" type="qcurve" smooth="yes"/>
      <point x="230" y="860"/>
      <point x="87" y="1056"/>
    </contour>
    <contour>
      <point x="554" y="1315" type="line"/>
      <point x="614" y="1487" type="line"/>
      <point x="718" y="1487" type="line"/>
      <point x="718" y="1051" type="line"/>
      <point x="604" y="1051" type="line"/>
    </contour>
  </outline>
</glyph>
<glyph name="V" format="1">
  <advance width="1336"/>
  <unicode hex="0056"/>
  <outline>
    <contour>
      <point x="-30" y="1386" type="line"/>
      <point x="-30" y="1500" type="line"/>
      <point x="324" y="1500" type="line"/>
      <point x="324" y="1386" type="line"/>
      <point x="153" y="1345" type="line"/>
      <point x="374" y="757" type="line"/>
      <point x="616" y="117" type="line"/>
      <point x="866" y="805" type="line"/>
      <point x="1067" y="1352" type="line"/>
      <point x="880" y="1386" type="line"/>
      <point x="880" y="1500" type="line"/>
      <point x="1386" y="1500" type="line"/>
      <point x="1386" y="1386" type="line"/>
      <point x="1208" y="1347" type="line"/>
      <point x="982" y="754" type="line"/>
      <point x="694" y="-8" type="line"/>
      <point x="642" y="-8" type="line"/>
      <point x="364" y="753" type="line"/>
      <point x="141" y="1347" type="line"/>
    </contour>
  </outline>
</glyph>
<glyph name="W" format="1">
  <advance width="2012"/>
  <unicode hex="0057"/>
  <outline>
    <contour>
      <point x="-30" y="1386" type="line"/>
      <point x="-30.0" y="1500.0" type="line"/>
      <point x="354" y="1500" type="line"/>
      <point x="354" y="1386" type="line"/>
      <point x="152" y="1347" type="line"/>
      <point x="357" y="761" type="line"/>
      <point x="578" y="119" type="line"/>
      <point x="815" y="805" type="line"/>
      <point x="946" y="1198" type="line"/>
      <point x="1014" y="987" type="line"/>
      <point x="932" y="754" type="line"/>
      <point x="659" y="-8" type="line"/>
      <point x="604" y="-8" type="line"/>
      <point x="348" y="755" type="line"/>
      <point x="141" y="1347" type="line"/>
    </contour>
    <contour>
      <point x="688" y="1394" type="line"/>
      <point x="688" y="1500" type="line"/>
      <point x="1102" y="1500" type="line"/>
      <point x="1102" y="1394" type="line"/>
      <point x="901" y="1355" type="line"/>
      <point x="1084" y="790" type="line"/>
      <point x="1298" y="119" type="line"/>
      <point x="1540" y="803" type="line"/>
      <point x="1723" y="1352" type="line"/>
      <point x="1526" y="1386" type="line"/>
      <point x="1526" y="1500" type="line"/>
      <point x="2062" y="1500" type="line"/>
      <point x="2062" y="1386" type="line"/>
      <point x="1874" y="1347" type="line"/>
      <point x="1656" y="760" type="line"/>
      <point x="1381" y="-8" type="line"/>
      <point x="1329" y="-8" type="line"/>
      <point x="1076" y="785" type="line"/>
      <point x="889" y="1355" type="line"/>
    </contour>
  </outline>
</glyph>
<glyph name="Z" format="1">
  <advance width="1006"/>
  <unicode hex="005A"/>
  <outline>
    <contour>
      <point x="70" y="0" type="line"/>
      <point x="40.0" y="92.0" type="line"/>
      <point x="499" y="785" type="line"/>
      <point x="874" y="1366" type="line"/>
      <point x="860" y="1382" type="line"/>
      <point x="238.0" y="1382.0" type="line"/>
      <point x="202.0" y="1058.0" type="line"/>
      <point x="80.0" y="1058.0" type="line"/>
      <point x="80.0" y="1500.0" type="line"/>
      <point x="921" y="1500" type="line"/>
      <point x="921" y="1409" type="line"/>
      <point x="508" y="779" type="line"/>
      <point x="79.0" y="124.0" type="line"/>
      <point x="93.0" y="108.0" type="line"/>
      <point x="800" y="108" type="line"/>
      <point x="876" y="378" type="line"/>
      <point x="986" y="378" type="line"/>
      <point x="946" y="0" type="line"/>
    </contour>
  </outline>
</glyph>
<glyph name="grave" format="1">
  <advance width="1024"/>
  <unicode hex="0060"/>
  <outline>
    <contour>
      <point x="344" y="1326" type="qcurve" smooth="yes"/>
      <point x="344" y="1340"/>
      <point x="366" y="1361"/>
      <point x="382" y="1361" type="qcurve" smooth="yes"/>
      <point x="398" y="1361"/>
      <point x="428" y="1342"/>
      <point x="444" y="1322" type="qcurve" smooth="yes"/>
      <point x="659" y="1060" type="line"/>
      <point x="651" y="1060" type="line"/>
      <point x="378" y="1274" type="line" smooth="yes"/>
      <point x="364" y="1285"/>
      <point x="344" y="1312"/>
    </contour>
  </outline>
</glyph>
<glyph name="a" format="1">
  <advance width="712"/>
  <unicode hex="0061"/>
  <outline>
    <contour>
      <point x="38" y="274" type="qcurve" smooth="yes"/>
      <point x="38" y="390"/>
      <point x="262" y="595"/>
      <point x="507" y="656" type="qcurve"/>
      <point x="506" y="567" type="line"/>
      <point x="288" y="533"/>
      <point x="48" y="390"/>
      <point x="48" y="273" type="qcurve" smooth="yes"/>
      <point x="48" y="177"/>
      <point x="157" y="98"/>
      <point x="254" y="98" type="qcurve" smooth="yes"/>
      <point x="345" y="98"/>
      <point x="493" y="213"/>
      <point x="503" y="264" type="qcurve"/>
      <point x="511" y="264" type="line"/>
      <point x="512" y="165"/>
      <point x="362" y="-15"/>
      <point x="260" y="-15" type="qcurve" smooth="yes"/>
      <point x="156" y="-15"/>
      <point x="38" y="142"/>
    </contour>
    <contour>
      <point x="42" y="880" type="line"/>
      <point x="61" y="924"/>
      <point x="193" y="1022"/>
      <point x="282" y="1022" type="qcurve" smooth="yes"/>
      <point x="373" y="1022"/>
      <point x="513" y="869"/>
      <point x="513" y="627" type="qcurve" smooth="yes"/>
      <point x="513" y="114" type="line"/>
      <point x="666" y="80" type="line"/>
      <point x="666" y="0" type="line"/>
      <point x="499" y="0" type="line"/>
      <point x="498" y="60" type="line"/>
      <point x="498" y="162" type="line"/>
      <point x="498" y="637" type="line" smooth="yes"/>
      <point x="498" y="759"/>
      <point x="408" y="905"/>
      <point x="288" y="905" type="qcurve" smooth="yes"/>
      <point x="216" y="905"/>
      <point x="114" y="854"/>
      <point x="80" y="821" type="qcurve"/>
    </contour>
  </outline>
</glyph>
<glyph name="b" format="1">
  <advance width="839"/>
  <unicode hex="0062"/>
  <outline>
    <contour>
      <point x="0" y="1406" type="line"/>
      <point x="0" y="1500" type="line"/>
      <point x="176" y="1534" type="line"/>
      <point x="187" y="1534" type="line"/>
      <point x="188" y="1502" type="line"/>
      <point x="188" y="428" type="line"/>
      <point x="190" y="88" type="line"/>
      <point x="190" y="0" type="line"/>
      <point x="178" y="0" type="line"/>
      <point x="178" y="427" type="line"/>
      <point x="178" y="1376" type="line"/>
    </contour>
    <contour>
      <point x="183" y="139" type="qcurve"/>
      <point x="183" y="245" type="line"/>
      <point x="215" y="183"/>
      <point x="366" y="91"/>
      <point x="469" y="91" type="qcurve" smooth="yes"/>
      <point x="605" y="91"/>
      <point x="760" y="313"/>
      <point x="760" y="514" type="qcurve"/>
      <point x="760" y="688"/>
      <point x="606" y="894"/>
      <point x="474" y="894" type="qcurve" smooth="yes"/>
      <point x="370" y="894"/>
      <point x="226" y="805"/>
      <point x="184" y="736" type="qcurve"/>
      <point x="184" y="793" type="line"/>
      <point x="216" y="890"/>
      <point x="356" y="1020"/>
      <point x="463" y="1020" type="qcurve" smooth="yes"/>
      <point x="597" y="1020"/>
      <point x="771" y="754"/>
      <point x="771" y="513" type="qcurve"/>
      <point x="771" y="258"/>
      <point x="590" y="-12"/>
      <point x="453" y="-12" type="qcurve" smooth="yes"/>
      <point x="341" y="-12"/>
      <point x="206" y="85"/>
    </contour>
  </outline>
</glyph>
<glyph name="e" format="1">
  <advance width="691"/>
  <unicode hex="0065"/>
  <outline>
    <contour>
      <point x="64" y="513" type="qcurve" smooth="yes"/>
      <point x="64" y="717"/>
      <point x="234" y="1022"/>
      <point x="372" y="1022" type="qcurve" smooth="yes"/>
      <point x="498" y="1022"/>
      <point x="644" y="794"/>
      <point x="654" y="588" type="qcurve"/>
      <point x="644" y="588" type="line"/>
      <point x="634" y="737"/>
      <point x="483" y="908"/>
      <point x="359" y="908" type="qcurve" smooth="yes"/>
      <point x="225" y="908"/>
      <point x="73" y="700"/>
      <point x="74" y="513" type="qcurve" smooth="yes"/>
      <point x="75" y="319"/>
      <point x="248" y="108"/>
      <point x="413" y="108" type="qcurve" smooth="yes"/>
      <point x="486" y="108"/>
      <point x="596" y="144"/>
      <point x="629" y="176" type="qcurve"/>
      <point x="663" y="128" type="line"/>
      <point x="633" y="64"/>
      <point x="515" y="-22"/>
      <point x="425" y="-22" type="qcurve" smooth="yes"/>
      <point x="265" y="-22"/>
      <point x="64" y="267"/>
    </contour>
    <contour>
      <point x="67" y="528" type="line"/>
      <point x="75" y="624" type="line"/>
      <point x="645" y="624" type="line"/>
      <point x="654" y="588" type="line"/>
      <point x="654" y="528" type="line"/>
    </contour>
  </outline>
</glyph>
<glyph name="f" format="1">
  <advance width="473"/>
  <unicode hex="0066"/>
  <outline>
    <contour>
      <point x="54" y="0" type="line"/>
      <point x="54" y="80" type="line"/>
      <point x="228" y="116" type="line"/>
      <point x="228" y="527" type="line"/>
      <point x="228" y="860" type="line"/>
      <point x="64" y="872" type="line"/>
      <point x="64" y="946" type="line"/>
      <point x="228" y="984" type="line"/>
      <point x="228" y="1350" type="line" smooth="yes"/>
      <point x="228" y="1440"/>
      <point x="272" y="1520"/>
      <point x="340" y="1532" type="qcurve"/>
      <point x="421" y="1500" type="line"/>
      <point x="421" y="1410" type="line"/>
      <point x="238" y="1374" type="line"/>
      <point x="238" y="527" type="line"/>
      <point x="238" y="116" type="line"/>
      <point x="425" y="80" type="line"/>
      <point x="425" y="0" type="line"/>
    </contour>
    <contour>
      <point x="228" y="872" type="line"/>
      <point x="232" y="974" type="line"/>
      <point x="433" y="974" type="line"/>
      <point x="433" y="872" type="line"/>
    </contour>
  </outline>
</glyph>
<glyph name="g" format="1">
  <advance width="891"/>
  <unicode hex="0067"/>
  <outline>
    <contour>
      <point x="24" y="-253" type="qcurve" smooth="yes"/>
      <point x="24" y="-159"/>
      <point x="128" y="-30"/>
      <point x="195" y="-3" type="qcurve"/>
      <point x="266" y="-31" type="line"/>
      <point x="225" y="-58"/>
      <point x="145" y="-148"/>
      <point x="145" y="-224" type="qcurve" smooth="yes"/>
      <point x="145" y="-310"/>
      <point x="329" y="-413"/>
      <point x="523" y="-413" type="qcurve" smooth="yes"/>
      <point x="723" y="-413"/>
      <point x="905" y="-326"/>
      <point x="905" y="-231" type="qcurve" smooth="yes"/>
      <point x="905" y="-150"/>
      <point x="756" y="-53"/>
      <point x="545" y="-53" type="qcurve" smooth="yes"/>
      <point x="319" y="-53"/>
      <point x="84" y="33"/>
      <point x="84" y="127" type="qcurve" smooth="yes"/>
      <point x="84" y="204"/>
      <point x="210" y="317"/>
      <point x="287" y="345" type="qcurve"/>
      <point x="338" y="278" type="line"/>
      <point x="276" y="247"/>
      <point x="214" y="183"/>
      <point x="214" y="117" type="qcurve" smooth="yes"/>
      <point x="214" y="39"/>
      <point x="354" y="-43"/>
      <point x="557" y="-43" type="qcurve" smooth="yes"/>
      <point x="761" y="-43"/>
      <point x="915" y="-140"/>
      <point x="915" y="-242" type="qcurve" smooth="yes"/>
      <point x="915" y="-383"/>
      <point x="694" y="-518"/>
      <point x="506" y="-518" type="qcurve" smooth="yes"/>
      <point x="273" y="-518"/>
      <point x="24" y="-378"/>
    </contour>
    <contour>
      <point x="210" y="632" type="qcurve"/>
      <point x="210" y="800"/>
      <point x="346" y="1022"/>
      <point x="454" y="1022" type="qcurve" smooth="yes"/>
      <point x="564" y="1022"/>
      <point x="699" y="810"/>
      <point x="699" y="635" type="qcurve"/>
      <point x="699" y="457"/>
      <point x="565" y="217"/>
      <point x="457" y="217" type="qcurve" smooth="yes"/>
      <point x="348" y="217"/>
      <point x="210" y="444"/>
    </contour>
    <contour>
      <point x="220" y="636" type="qcurve"/>
      <point x="220" y="484"/>
      <point x="349" y="319"/>
      <point x="454" y="319" type="qcurve" smooth="yes"/>
      <point x="567" y="319"/>
      <point x="689" y="471"/>
      <point x="689" y="623" type="qcurve"/>
      <point x="689" y="757"/>
      <point x="561" y="908"/>
      <point x="456" y="908" type="qcurve" smooth="yes"/>
      <point x="344" y="908"/>
      <point x="220" y="773"/>
    </contour>
    <contour>
      <point x="564" y="925" type="line"/>
      <point x="549" y="1000" type="line"/>
      <point x="842" y="1000" type="line"/>
      <point x="842" y="865" type="line"/>
    </contour>
  </outline>
</glyph>
<glyph name="h" format="1">
  <advance width="954"/>
  <unicode hex="0068"/>
  <outline>
    <contour>
      <point x="76" y="0" type="line"/>
      <point x="76" y="80" type="line"/>
      <point x="226" y="115" type="line"/>
      <point x="226" y="527" type="line"/>
      <point x="226" y="1376" type="line"/>
      <point x="52" y="1406" type="line"/>
      <point x="52" y="1500" type="line"/>
      <point x="228" y="1534" type="line"/>
      <point x="236" y="1534" type="line"/>
      <point x="236" y="1502" type="line"/>
      <point x="236" y="527" type="line"/>
      <point x="236" y="115" type="line"/>
      <point x="375" y="80" type="line"/>
      <point x="375" y="0" type="line"/>
    </contour>
    <contour>
      <point x="233" y="719" type="qcurve"/>
      <point x="231" y="790" type="line"/>
      <point x="264" y="889"/>
      <point x="423" y="1021"/>
      <point x="512" y="1021" type="qcurve"/>
      <point x="623" y="1021"/>
      <point x="736" y="872"/>
      <point x="736" y="742" type="qcurve" smooth="yes"/>
      <point x="736" y="668"/>
      <point x="736" y="527"/>
      <point x="736" y="527" type="qcurve"/>
      <point x="740" y="115" type="line"/>
      <point x="888" y="80" type="line"/>
      <point x="888" y="0" type="line"/>
      <point x="565" y="0" type="line"/>
      <point x="565" y="80" type="line"/>
      <point x="723" y="115" type="line"/>
      <point x="726" y="527" type="line"/>
      <point x="725" y="703" type="line" smooth="yes"/>
      <point x="725" y="784"/>
      <point x="624" y="877"/>
      <point x="529" y="877" type="qcurve" smooth="yes"/>
      <point x="438" y="877"/>
      <point x="277" y="789"/>
    </contour>
  </outline>
</glyph>
<glyph name="l" format="1">
  <advance width="441"/>
  <unicode hex="006C"/>
  <outline>
    <contour>
      <point x="76" y="0" type="line"/>
      <point x="76" y="80" type="line"/>
      <point x="226" y="115" type="line"/>
      <point x="226" y="527" type="line"/>
      <point x="226" y="1366" type="line"/>
      <point x="52" y="1406" type="line"/>
      <point x="52" y="1500" type="line"/>
      <point x="234" y="1534" type="line"/>
      <point x="236" y="1532" type="line"/>
      <point x="236" y="1501" type="line"/>
      <point x="236" y="527" type="line"/>
      <point x="236" y="115" type="line"/>
      <point x="375" y="80" type="line"/>
      <point x="375" y="0" type="line"/>
    </contour>
  </outline>
</glyph>
<glyph name="n" format="1">
  <advance width="955"/>
  <unicode hex="006E"/>
  <outline>
    <contour>
      <point x="76" y="0" type="line"/>
      <point x="76" y="80" type="line"/>
      <point x="226" y="115" type="line"/>
      <point x="226" y="527" type="line"/>
      <point x="226" y="842" type="line"/>
      <point x="76" y="872" type="line"/>
      <point x="76" y="966" type="line"/>
      <point x="231" y="1000" type="line"/>
      <point x="236" y="973" type="line"/>
      <point x="236" y="872" type="line"/>
      <point x="236" y="527" type="line"/>
      <point x="236" y="115" type="line"/>
      <point x="376" y="80" type="line"/>
      <point x="376" y="0" type="line"/>
    </contour>
    <contour>
      <point x="233" y="719" type="qcurve"/>
      <point x="231" y="790" type="line"/>
      <point x="264" y="889"/>
      <point x="423" y="1021"/>
      <point x="512" y="1021" type="qcurve" smooth="yes"/>
      <point x="623" y="1021"/>
      <point x="736" y="872"/>
      <point x="736" y="742" type="qcurve" smooth="yes"/>
      <point x="736" y="668"/>
      <point x="736" y="527"/>
      <point x="736" y="527" type="qcurve"/>
      <point x="736" y="115" type="line"/>
      <point x="889" y="80" type="line"/>
      <point x="889" y="0" type="line"/>
      <point x="566" y="0" type="line"/>
      <point x="566" y="80" type="line"/>
      <point x="726" y="115" type="line"/>
      <point x="726" y="527" type="line"/>
      <point x="726" y="702" type="line" smooth="yes"/>
      <point x="726" y="785"/>
      <point x="618" y="877"/>
      <point x="529" y="877" type="qcurve" smooth="yes"/>
      <point x="438" y="877"/>
      <point x="277" y="789"/>
    </contour>
  </outline>
</glyph>
<glyph name="r" format="1">
  <advance width="708"/>
  <unicode hex="0072"/>
  <outline>
    <contour>
      <point x="76" y="0" type="line"/>
      <point x="76" y="80" type="line"/>
      <point x="225" y="116" type="line"/>
      <point x="225" y="527" type="line"/>
      <point x="225" y="826" type="line"/>
      <point x="76" y="872" type="line"/>
      <point x="76" y="966" type="line"/>
      <point x="235" y="1000" type="line"/>
      <point x="235" y="973" type="line"/>
      <point x="235" y="872" type="line"/>
      <point x="235" y="527" type="line"/>
      <point x="235" y="116" type="line"/>
      <point x="413" y="80" type="line"/>
      <point x="413" y="0" type="line"/>
    </contour>
    <contour>
      <point x="231" y="594" type="qcurve"/>
      <point x="227" y="668" type="line"/>
      <point x="257" y="809"/>
      <point x="451" y="1000"/>
      <point x="611" y="1000" type="qcurve" smooth="yes"/>
      <point x="682" y="1000" type="line"/>
      <point x="682" y="740" type="line"/>
      <point x="574" y="740" type="line"/>
      <point x="540" y="867" type="line"/>
      <point x="428" y="867"/>
      <point x="304" y="755"/>
    </contour>
  </outline>
</glyph>
<glyph name="s" format="1">
  <advance width="589"/>
  <unicode hex="0073"/>
  <outline>
    <contour>
      <point x="52" y="0" type="line"/>
      <point x="52" y="339" type="line"/>
      <point x="159" y="339" type="line"/>
      <point x="206" y="118" type="line"/>
      <point x="143" y="0" type="line"/>
    </contour>
    <contour>
      <point x="90" y="770" type="qcurve" smooth="yes"/>
      <point x="90" y="869"/>
      <point x="199" y="1022"/>
      <point x="280" y="1022" type="qcurve" smooth="yes"/>
      <point x="346" y="1022"/>
      <point x="435" y="958"/>
      <point x="456" y="917" type="qcurve"/>
      <point x="379" y="857" type="line"/>
      <point x="365" y="874"/>
      <point x="308" y="924"/>
      <point x="253" y="924" type="qcurve" smooth="yes"/>
      <point x="190" y="924"/>
      <point x="100" y="847"/>
      <point x="100" y="770" type="qcurve" smooth="yes"/>
      <point x="100" y="684"/>
      <point x="181" y="592"/>
      <point x="312" y="544" type="qcurve" smooth="yes"/>
      <point x="454" y="492"/>
      <point x="541" y="390"/>
      <point x="541" y="287" type="qcurve" smooth="yes"/>
      <point x="541" y="160"/>
      <point x="414" y="-20"/>
      <point x="322" y="-20" type="qcurve" smooth="yes"/>
      <point x="263" y="-20"/>
      <point x="170" y="26"/>
      <point x="138" y="65" type="qcurve"/>
      <point x="179" y="134" type="line"/>
      <point x="192" y="117"/>
      <point x="285" y="85"/>
      <point x="336" y="85" type="qcurve" smooth="yes"/>
      <point x="429" y="85"/>
      <point x="531" y="196"/>
      <point x="531" y="287" type="qcurve" smooth="yes"/>
      <point x="531" y="386"/>
      <point x="445" y="483"/>
      <point x="309" y="534" type="qcurve" smooth="yes"/>
      <point x="178" y="583"/>
      <point x="90" y="674"/>
    </contour>
    <contour>
      <point x="354" y="884" type="line"/>
      <point x="408" y="1000" type="line"/>
      <point x="499" y="1000" type="line"/>
      <point x="499" y="704" type="line"/>
      <point x="393" y="704" type="line"/>
    </contour>
  </outline>
</glyph>
<glyph name="v" format="1">
  <advance width="946"/>
  <unicode hex="0076"/>
  <outline>
    <contour>
      <point x="-10" y="910" type="line"/>
      <point x="-10" y="1000" type="line"/>
      <point x="253" y="1000" type="line"/>
      <point x="253" y="910" type="line"/>
      <point x="120" y="873" type="line"/>
      <point x="277" y="483" type="line"/>
      <point x="403" y="152" type="line"/>
      <point x="556" y="538" type="line"/>
      <point x="677" y="880" type="line"/>
      <point x="540" y="910" type="line"/>
      <point x="540" y="1000" type="line"/>
      <point x="956" y="1000" type="line"/>
      <point x="956" y="910" type="line"/>
      <point x="808" y="875" type="line"/>
      <point x="660" y="497" type="line"/>
      <point x="474" y="-8" type="line"/>
      <point x="452" y="-8" type="line"/>
      <point x="266" y="481" type="line"/>
      <point x="108" y="875" type="line"/>
    </contour>
  </outline>
</glyph>
<glyph name="y" format="1">
  <advance width="946"/>
  <unicode hex="0079"/>
  <outline>
    <contour>
      <point x="-10" y="910" type="line"/>
      <point x="-10" y="1000" type="line"/>
      <point x="254" y="1000" type="line"/>
      <point x="254" y="910" type="line"/>
      <point x="121" y="873" type="line"/>
      <point x="276" y="484" type="line"/>
      <point x="406" y="142" type="line"/>
      <point x="556" y="538" type="line"/>
      <point x="677" y="880" type="line"/>
      <point x="540" y="910" type="line"/>
      <point x="540" y="1000" type="line"/>
      <point x="956" y="1000" type="line"/>
      <point x="956" y="910" type="line"/>
      <point x="808" y="875" type="line"/>
      <point x="660" y="497" type="line"/>
      <point x="370" y="-287" type="line" smooth="yes"/>
      <point x="329" y="-398"/>
      <point x="236" y="-492"/>
      <point x="147" y="-492" type="qcurve"/>
      <point x="39" y="-460" type="line"/>
      <point x="39" y="-370" type="line"/>
      <point x="90" y="-370" type="line" smooth="yes"/>
      <point x="144" y="-370"/>
      <point x="241" y="-308"/>
      <point x="283" y="-195" type="qcurve" smooth="yes"/>
      <point x="402" y="124" type="line"/>
      <point x="266" y="481" type="line"/>
      <point x="108" y="875" type="line"/>
    </contour>
  </outline>
</glyph>
<glyph name="braceright" format="1">
  <advance width="693"/>
  <unicode hex="007D"/>
  <outline>
    <contour>
      <point x="633" y="481" type="line"/>
      <point x="398" y="481" type="line"/>
      <point x="321" y="320" type="line"/>
      <point x="321" y="220"/>
      <point x="447" y="-50"/>
      <point x="447" y="-170" type="qcurve" smooth="yes"/>
      <point x="447" y="-330"/>
      <point x="341" y="-495"/>
      <point x="185" y="-495" type="qcurve" smooth="yes"/>
      <point x="114" y="-495"/>
      <point x="52" y="-487"/>
      <point x="15" y="-484" type="qcurve"/>
      <point x="15" y="-372" type="line"/>
      <point x="67" y="-374"/>
      <point x="130" y="-374"/>
      <point x="199" y="-374" type="qcurve" smooth="yes"/>
      <point x="281" y="-374"/>
      <point x="437" y="-280"/>
      <point x="437" y="-170" type="qcurve" smooth="yes"/>
      <point x="437" y="-50"/>
      <point x="311" y="220"/>
      <point x="311" y="320" type="qcurve" smooth="yes"/>
      <point x="311" y="380"/>
      <point x="394" y="516"/>
      <point x="457" y="550" type="qcurve"/>
      <point x="406" y="571"/>
      <point x="317" y="650"/>
      <point x="317" y="740" type="qcurve" smooth="yes"/>
      <point x="317" y="840"/>
      <point x="427" y="1060"/>
      <point x="427" y="1190" type="qcurve" smooth="yes"/>
      <point x="427" y="1300"/>
      <point x="284" y="1388"/>
      <point x="194" y="1388" type="qcurve"/>
      <point x="125" y="1388"/>
      <point x="62" y="1388"/>
      <point x="10" y="1386" type="qcurve"/>
      <point x="10" y="1500" type="line"/>
      <point x="47" y="1503"/>
      <point x="109" y="1510"/>
      <point x="180" y="1510" type="qcurve" smooth="yes"/>
      <point x="323" y="1510"/>
      <point x="437" y="1340"/>
      <point x="437" y="1190" type="qcurve" smooth="yes"/>
      <point x="437" y="1060"/>
      <point x="327" y="840"/>
      <point x="327" y="740" type="qcurve" smooth="yes"/>
      <point x="327" y="660"/>
      <point x="446" y="603"/>
      <point x="502" y="599" type="qcurve" smooth="yes"/>
      <point x="633" y="589" type="line"/>
    </contour>
  </outline>
</glyph>
<glyph name="cid09831" format="1">
  <advance width="2000"/>
  <unicode hex="4EE5"/>
  <outline>
    <contour>
      <point x="742" y="1336" type="line"/>
      <point x="833.044776119403" y="1250.9253731343283"/>
      <point x="1040.686567164179" y="999.9701492537313"/>
      <point x="1078" y="894" type="qcurve"/>
      <point x="1195.910447761194" y="817.8805970149253"/>
      <point x="1181.402985074627" y="1178.865671641791"/>
      <point x="762" y="1352" type="qcurve"/>
    </contour>
    <contour>
      <point x="823.9543054152565" y="437.59619767869594"/>
      <point x="230.66128983083445" y="221.91788844383865"/>
      <point x="66" y="182" type="qcurve"/>
      <point x="152" y="12" type="line"/>
      <point x="166.92537313432837" y="17.970149253731343"/>
      <point x="191.01492537313433" y="48.08955223880597"/>
      <point x="194" y="66" type="qcurve"/>
      <point x="467.1343283582089" y="189.88059701492534"/>
      <point x="882.7462686567164" y="402.3880597014926"/>
      <point x="1032" y="480" type="qcurve"/>
      <point x="1022" y="510" type="line"/>
    </contour>
    <contour>
      <point x="490" y="280" type="line"/>
      <point x="470" y="1502" type="line"/>
      <point x="508.8059701492537" y="1507.9701492537313"/>
      <point x="538.5074626865671" y="1539.1044776119404"/>
      <point x="540" y="1560" type="qcurve"/>
      <point x="340" y="1576" type="line"/>
      <point x="360" y="230" type="line"/>
    </contour>
    <contour>
      <point x="1354.0298507462685" y="131.07462686567163"/>
      <point x="1687.5557358004762" y="982.0037310698585"/>
      <point x="1712" y="1488" type="qcurve"/>
      <point x="1744.8358208955224" y="1492.4776119402984"/>
      <point x="1781.5223880597016" y="1523.6119402985075"/>
      <point x="1786" y="1546" type="qcurve"/>
      <point x="1570" y="1572" type="line"/>
      <point x="1556.5671641791046" y="1010.8059701492538"/>
      <point x="1229.044776119403" y="189.97014925373134"/>
      <point x="538" y="-116" type="qcurve"/>
      <point x="560" y="-154" type="line"/>
    </contour>
    <contour>
      <point x="1381" y="407" type="line"/>
      <point x="1511.597014925373" y="277.8955223880597"/>
      <point x="1745.7313432835822" y="-7.582089552238813"/>
      <point x="1792" y="-124" type="qcurve"/>
      <point x="1915.8805970149253" y="-203.1044776119403"/>
      <point x="1879.3880597014925" y="197.4626865671642"/>
      <point x="1407" y="440" type="qcurve"/>
    </contour>
  </outline>
</glyph>
<glyph name="cid17712" format="1">
  <advance width="2000"/>
  <unicode hex="5F81"/>
  <outline>
    <contour>
      <point x="496" y="1672" type="line"/>
      <point x="436.2985074626866" y="1557.0746268656717"/>
      <point x="202.38805970149252" y="1257.9701492537313"/>
      <point x="80" y="1152" type="qcurve"/>
      <point x="100" y="1128" type="line"/>
      <point x="249.25373134328356" y="1214.5671641791046"/>
      <point x="525.4029850746268" y="1454.5074626865671"/>
      <point x="606" y="1556" type="qcurve"/>
      <point x="638.8358208955224" y="1548.5373134328358"/>
      <point x="671.5522388059702" y="1559.0746268656717"/>
      <point x="682" y="1574" type="qcurve"/>
    </contour>
    <contour>
      <point x="644" y="1152" type="qcurve"/>
      <point x="681.3134328358209" y="1146.0298507462687"/>
      <point x="714.5373134328358" y="1157.5820895522388"/>
      <point x="722" y="1174" type="qcurve"/>
      <point x="532" y="1266" type="line"/>
      <point x="463.34328358208955" y="1115.2537313432836"/>
      <point x="200.2686567164179" y="718.776119402985"/>
      <point x="54" y="574" type="qcurve"/>
      <point x="78" y="550" type="line"/>
      <point x="242.92537313432834" y="673.8805970149253"/>
      <point x="528.3283582089553" y="977.3731343283582"/>
    </contour>
    <contour>
      <point x="1672" y="-44" type="line"/>
      <point x="1720" y="-20" type="line"/>
      <point x="1356" y="-20" type="line"/>
      <point x="1356" y="734" type="line"/>
      <point x="1820" y="734" type="line" smooth="yes"/>
      <point x="1840.8955223880596" y="734.0"/>
      <point x="1867.5223880597016" y="749.0746268656717"/>
      <point x="1872" y="764" type="qcurve"/>
      <point x="1822.7462686567164" y="808.776119402985"/>
      <point x="1704.0" y="908.0"/>
      <point x="1704" y="908" type="qcurve"/>
      <point x="1594" y="766" type="line"/>
      <point x="1642" y="790" type="line"/>
      <point x="1356" y="790" type="line"/>
      <point x="1356" y="1422" type="line"/>
      <point x="1862" y="1422" type="line" smooth="yes"/>
      <point x="1882.8955223880596" y="1422.0"/>
      <point x="1907.5223880597016" y="1437.5820895522388"/>
      <point x="1912" y="1454" type="qcurve"/>
      <point x="1864.2388059701493" y="1500.2686567164178"/>
      <point x="1742.0" y="1598.0"/>
      <point x="1742" y="1598" type="qcurve"/>
      <point x="1650" y="1482" type="line"/>
      <point x="700" y="1482" type="line"/>
      <point x="716" y="1422" type="line"/>
      <point x="1226" y="1422" type="line"/>
      <point x="1226" y="-20" type="line"/>
      <point x="944" y="-20" type="line"/>
      <point x="944" y="956" type="line"/>
      <point x="981.3134328358209" y="961.9701492537314"/>
      <point x="1015.0149253731344" y="991.1044776119403"/>
      <point x="1018" y="1012" type="qcurve"/>
      <point x="818" y="1034" type="line"/>
      <point x="818" y="-20" type="line"/>
      <point x="568" y="-20" type="line"/>
      <point x="584" y="-78" type="line"/>
      <point x="1902" y="-78" type="line" smooth="yes"/>
      <point x="1921.402985074627" y="-78.0"/>
      <point x="1951.0149253731342" y="-64.41791044776119"/>
      <point x="1954" y="-48" type="qcurve"/>
      <point x="1906.2388059701493" y="-1.7313432835820919"/>
      <point x="1782.0" y="98.0"/>
      <point x="1782" y="98" type="qcurve"/>
    </contour>
    <contour>
      <point x="350" y="852" type="line"/>
      <point x="350" y="-156" type="line"/>
      <point x="376" y="-156" type="line" smooth="yes"/>
      <point x="411.82089552238807" y="-156.0"/>
      <point x="476.5074626865672" y="-118.95522388059702"/>
      <point x="478" y="-110" type="qcurve"/>
      <point x="478" y="852" type="line"/>
      <point x="503.3731343283582" y="857.9701492537314"/>
      <point x="532.0298507462686" y="876.5671641791045"/>
      <point x="538" y="890" type="qcurve"/>
      <point x="425" y="932" type="line"/>
    </contour>
  </outline>
</glyph>
<glyph name="cid17723" format="1">
  <advance width="2000"/>
  <unicode hex="5F88"/>
  <outline>
    <contour>
      <point x="528" y="1664" type="line"/>
      <point x="457.85074626865674" y="1543.1044776119404"/>
      <point x="196.32835820895522" y="1229.4328358208954"/>
      <point x="62" y="1116" type="qcurve"/>
      <point x="84" y="1092" type="line"/>
      <point x="243.7014925373134" y="1183.044776119403"/>
      <point x="544.4477611940299" y="1439.5223880597016"/>
      <point x="634" y="1544" type="qcurve"/>
      <point x="666.8358208955224" y="1536.5373134328358"/>
      <point x="699.5522388059702" y="1547.0746268656717"/>
      <point x="710" y="1562" type="qcurve"/>
    </contour>
    <contour>
      <point x="194.7462686567164" y="586.6567164179105"/>
      <point x="538.1492537313433" y="937.7611940298508"/>
      <point x="668" y="1140" type="qcurve"/>
      <point x="703.820895522388" y="1135.5223880597016"/>
      <point x="735.5522388059702" y="1147.5820895522388"/>
      <point x="746" y="1164" type="qcurve"/>
      <point x="556" y="1260" type="line"/>
      <point x="485.85074626865674" y="1103.2835820895523"/>
      <point x="217.76119402985074" y="693.2537313432836"/>
      <point x="70" y="544" type="qcurve"/>
      <point x="94" y="518" type="line"/>
    </contour>
    <contour>
      <point x="966" y="1148" type="line"/>
      <point x="1596" y="1148" type="line"/>
      <point x="1596" y="852" type="line"/>
      <point x="966" y="852" type="line"/>
    </contour>
    <contour>
      <point x="966" y="1208" type="line"/>
      <point x="966" y="1496" type="line"/>
      <point x="1596" y="1496" type="line"/>
      <point x="1596" y="1208" type="line"/>
    </contour>
    <contour>
      <point x="464" y="930" type="line"/>
      <point x="380" y="830" type="line"/>
      <point x="380" y="-156" type="line"/>
      <point x="402" y="-156" type="line" smooth="yes"/>
      <point x="440.8059701492537" y="-156.0"/>
      <point x="506.5074626865672" y="-116.95522388059702"/>
      <point x="508" y="-108" type="qcurve"/>
      <point x="508" y="856" type="line"/>
      <point x="533.3731343283582" y="858.9850746268656"/>
      <point x="563.5223880597015" y="878.5671641791045"/>
      <point x="568" y="892" type="qcurve"/>
    </contour>
    <contour>
      <point x="1420" y="346" type="line"/>
      <point x="1542.3880597014925" y="407.19402985074623"/>
      <point x="1754.2686567164178" y="550.2089552238806"/>
      <point x="1808" y="592" type="qcurve"/>
      <point x="1828.8955223880596" y="586.0298507462686"/>
      <point x="1858.5373134328358" y="589.5522388059702"/>
      <point x="1866" y="600" type="qcurve"/>
      <point x="1720" y="710" type="line"/>
      <point x="1675.2238805970148" y="653.2835820895523"/>
      <point x="1498.0298507462687" y="456.82089552238807"/>
      <point x="1404" y="371" type="qcurve"/>
    </contour>
    <contour>
      <point x="1697.1470537415626" y="64.5300017278687"/>
      <point x="1319.313432835821" y="493.4925373134329"/>
      <point x="1232" y="792" type="qcurve"/>
      <point x="1596" y="792" type="line"/>
      <point x="1596" y="720" type="line"/>
      <point x="1616" y="720" type="line" smooth="yes"/>
      <point x="1648.8358208955224" y="720.0"/>
      <point x="1722.5074626865671" y="755.5522388059702"/>
      <point x="1724" y="766" type="qcurve"/>
      <point x="1724" y="1470" type="line"/>
      <point x="1753.8507462686566" y="1475.9701492537313"/>
      <point x="1799.044776119403" y="1498.0597014925372"/>
      <point x="1808" y="1510" type="qcurve"/>
      <point x="1650" y="1634" type="line"/>
      <point x="1576" y="1554" type="line"/>
      <point x="990" y="1554" type="line"/>
      <point x="838" y="1630" type="line"/>
      <point x="838" y="68" type="line" smooth="yes"/>
      <point x="838.0" y="38.149253731343286"/>
      <point x="815.2835820895523" y="6.388059701492537"/>
      <point x="772" y="-16" type="qcurve"/>
      <point x="838" y="-160" type="line"/>
      <point x="848.4477611940298" y="-155.52238805970148"/>
      <point x="873.044776119403" y="-132.4179104477612"/>
      <point x="882" y="-116" type="qcurve"/>
      <point x="1023.7910447761194" y="-39.880597014925385"/>
      <point x="1273.3432835820895" y="108.2089552238806"/>
      <point x="1342" y="150" type="qcurve"/>
      <point x="1330" y="178" type="line"/>
      <point x="1234.4776119402986" y="139.1940298507463"/>
      <point x="1045.1044776119402" y="68.86567164179104"/>
      <point x="966" y="42" type="qcurve"/>
      <point x="966" y="792" type="line"/>
      <point x="1188" y="792" type="line"/>
      <point x="1259.641791044776" y="456.179104477612"/>
      <point x="1563.2835820895523" y="-21.64179104477614"/>
      <point x="1820" y="-150" type="qcurve"/>
      <point x="1833.4328358208954" y="-103.73134328358209"/>
      <point x="1893.1940298507463" y="-45.97014925373134"/>
      <point x="1932" y="-40" type="qcurve"/>
      <point x="1934" y="-16" type="line"/>
    </contour>
  </outline>
</glyph>
<glyph name="cid41116" format="1">
  <advance width="2000"/>
  <unicode hex="8FDC"/>
  <outline>
    <contour>
      <point x="1716" y="1464" type="line" smooth="yes"/>
      <point x="1736.8955223880596" y="1464.0"/>
      <point x="1765.5223880597016" y="1479.5820895522388"/>
      <point x="1770" y="1496" type="qcurve"/>
      <point x="1717.7611940298507" y="1543.7611940298507"/>
      <point x="1586.0" y="1646.0"/>
      <point x="1586" y="1646" type="qcurve"/>
      <point x="1488" y="1522" type="line"/>
      <point x="728" y="1522" type="line"/>
      <point x="744" y="1464" type="line"/>
    </contour>
    <contour>
      <point x="948" y="1018" type="line"/>
      <point x="945.0149253731344" y="744.8656716417911"/>
      <point x="825.4626865671642" y="346.6865671641791"/>
      <point x="618" y="184" type="qcurve"/>
      <point x="634" y="156" type="line"/>
      <point x="896.6865671641791" y="296.29850746268653"/>
      <point x="1072.0597014925372" y="707.5522388059702"/>
      <point x="1084" y="1018" type="qcurve"/>
      <point x="1332" y="1018" type="line"/>
      <point x="1332" y="328" type="line" smooth="yes"/>
      <point x="1332.0" y="260.8358208955224"/>
      <point x="1388.9850746268658" y="204.0"/>
      <point x="1486" y="204" type="qcurve" smooth="yes"/>
      <point x="1632" y="204" type="line" smooth="yes"/>
      <point x="1806.6268656716418" y="204.0"/>
      <point x="1920.0" y="243.1940298507463"/>
      <point x="1920" y="282" type="qcurve" smooth="yes"/>
      <point x="1920.0" y="301.4029850746269"/>
      <point x="1901.3432835820895" y="328.05970149253733"/>
      <point x="1870" y="340" type="qcurve"/>
      <point x="1864" y="600" type="line"/>
      <point x="1838" y="600" type="line"/>
      <point x="1821.5820895522388" y="519.4029850746268"/>
      <point x="1792.44776119403" y="370.3880597014925"/>
      <point x="1782" y="348" type="qcurve" smooth="yes"/>
      <point x="1776.0298507462687" y="334.56716417910445"/>
      <point x="1763.4328358208954" y="326.0"/>
      <point x="1750" y="326" type="qcurve"/>
      <point x="1738.0597014925372" y="324.5074626865672"/>
      <point x="1677.7910447761194" y="322.0"/>
      <point x="1636" y="322" type="qcurve" smooth="yes"/>
      <point x="1516" y="322" type="line" smooth="yes"/>
      <point x="1478.686567164179" y="322.0"/>
      <point x="1458.0" y="339.1044776119403"/>
      <point x="1458" y="360" type="qcurve" smooth="yes"/>
      <point x="1458" y="1018" type="line"/>
      <point x="1858" y="1018" type="line" smooth="yes"/>
      <point x="1878.8955223880596" y="1018.0"/>
      <point x="1907.5223880597016" y="1033.5820895522388"/>
      <point x="1912" y="1050" type="qcurve"/>
      <point x="1861.2537313432836" y="1097.7611940298507"/>
      <point x="1736.0" y="1198.0"/>
      <point x="1736" y="1198" type="qcurve"/>
      <point x="1619" y="1055" type="line"/>
      <point x="1668" y="1078" type="line"/>
      <point x="592" y="1078" type="line"/>
      <point x="608" y="1018" type="line"/>
    </contour>
    <contour>
      <point x="168" y="1630" type="line"/>
      <point x="230.6865671641791" y="1547.910447761194"/>
      <point x="371.1044776119403" y="1312.5074626865671"/>
      <point x="392" y="1214" type="qcurve"/>
      <point x="496.4776119402985" y="1137.8805970149253"/>
      <point x="523.8507462686566" y="1464.3880597014925"/>
      <point x="194" y="1642" type="qcurve"/>
    </contour>
    <contour>
      <point x="452" y="240" type="line"/>
      <point x="452" y="912" type="line"/>
      <point x="492.2985074626866" y="917.9701492537314"/>
      <point x="537.5522388059702" y="939.5522388059702"/>
      <point x="548" y="950" type="qcurve"/>
      <point x="380" y="1090" type="line"/>
      <point x="304" y="992" type="line"/>
      <point x="64" y="992" type="line"/>
      <point x="76" y="932" type="line"/>
      <point x="332" y="932" type="line"/>
      <point x="332" y="200" type="line"/>
    </contour>
    <contour>
      <point x="68" y="0" type="line"/>
      <point x="188" y="-146" type="line"/>
      <point x="196.955223880597" y="-135.55223880597015"/>
      <point x="202.47761194029852" y="-112.44776119402985"/>
      <point x="198" y="-102" type="qcurve"/>
      <point x="236.8059701492537" y="-31.85074626865672"/>
      <point x="354.65671641791045" y="146.23880597014926"/>
      <point x="386" y="194" type="qcurve" smooth="yes"/>
      <point x="397.94029850746267" y="213.40298507462686"/>
      <point x="426.5970149253731" y="217.88059701492537"/>
      <point x="446" y="194" type="qcurve" smooth="yes"/>
      <point x="589.2835820895523" y="17.8805970149254"/>
      <point x="933.4328358208955" y="-110.0"/>
      <point x="1220" y="-110" type="qcurve" smooth="yes"/>
      <point x="1816" y="-110" type="line"/>
      <point x="1821.9701492537313" y="-65.22388059701493"/>
      <point x="1875.7313432835822" y="-4.44776119402985"/>
      <point x="1922" y="6" type="qcurve"/>
      <point x="1922" y="30" type="line"/>
      <point x="1742.8955223880598" y="22.537313432835823"/>
      <point x="1437.134328358209" y="21.492537313432834"/>
      <point x="1264" y="20" type="qcurve" smooth="yes"/>
      <point x="980.4179104477612" y="18.507462686567166"/>
      <point x="614.8059701492537" y="105.7313432835821"/>
      <point x="476" y="252" type="qcurve" smooth="yes"/>
      <point x="458.089552238806" y="269.910447761194"/>
      <point x="433.4029850746269" y="280.0"/>
      <point x="414" y="280" type="qcurve" smooth="yes"/>
      <point x="393.1044776119403" y="280.0"/>
      <point x="330.17910447761193" y="236.2089552238806"/>
      <point x="266" y="178" type="qcurve" smooth="yes"/>
    </contour>
  </outline>
</glyph>
